# This file uses centimeters as units for non-parametric coordinates.

mtllib Stair.mtl
g default
v -49.999994 -49.999997 -50.000000
v -49.999994 -49.999997 50.000000
v 24.864969 50.000042 -50.000066
v 24.864969 50.000042 49.999934
v 50.000000 49.999997 -50.000000
v 50.000000 49.999997 50.000000
v 50.000000 -49.999994 -50.000000
v 50.000000 -49.999994 50.000000
v -25.133938 0.000039 -50.000066
v -25.133938 0.000039 49.999934
v 0.320819 25.000045 -50.000066
v 0.320819 25.000045 49.999934
v -50.000012 -24.999961 -50.000072
v -50.000012 -24.999961 49.999923
v -25.133926 -22.121494 -49.999991
v -25.133929 -22.025296 50.000006
v 0.320846 1.574925 -49.999991
v 0.320845 1.578623 50.000006
v 24.864992 27.664778 -49.999991
v 24.865001 27.604178 50.000006
vt 0.996456 -0.000347
vt 0.004170 -0.001651
vt 0.005486 -1.003648
vt 0.997772 -1.002344
vt 0.009039 1.989277
vt 0.009460 1.741743
vt 0.994654 1.743412
vt 0.994234 1.990948
vt 0.011137 0.999460
vt 0.996332 1.001131
vt 0.995916 1.246014
vt 0.010722 1.244343
vt 0.011592 1.247972
vt 0.996786 1.249642
vt 0.996361 1.500325
vt 0.011167 1.498654
vt 0.012032 1.501652
vt 0.997227 1.503323
vt 0.996816 1.745035
vt 0.011621 1.743364
vt 0.996505 0.996853
vt 0.001599 1.000066
vt 0.000750 0.762946
vt 0.995659 0.760377
vt 2.983216 1.000302
vt 2.000625 1.004478
vt 1.996408 0.012247
vt 2.978999 0.008071
vt -0.003171 0.276660
vt 0.991705 0.268434
vt 0.993920 0.501624
vt -0.000945 0.510865
vt -0.000157 0.514539
vt 0.994709 0.505336
vt 0.997065 0.753307
vt 0.002200 0.762550
vt -0.005296 0.009267
vt 0.989569 0.000026
vt 0.992084 0.264710
vt -0.002782 0.273951
vt 1.993827 1.002707
vt 1.743706 1.001644
vt 1.744653 0.778782
vt 1.500525 0.751830
vt 1.501516 0.518761
vt 1.248281 0.501978
vt 1.249213 0.282803
vt 1.001898 0.252151
vt 1.002955 0.003376
vt 1.998056 0.007605
vt 2.988001 0.005343
vt 4.012540 0.006067
vt 4.012230 0.253877
vt 3.757430 0.282231
vt 3.757155 0.501508
vt 3.496345 0.516933
vt 3.496054 0.749134
vt 3.244552 0.775373
vt 3.244281 0.996767
vt 2.986759 0.996585
vn -0.713716 0.700435 0.000212
vn -0.713449 0.700707 0.000212
vn -1.000000 -0.000001 0.000000
vn -1.000000 -0.000001 0.000000
vn 1.000000 0.000000 -0.000000
vn 1.000000 0.000000 -0.000000
vn 1.000000 0.000000 -0.000000
vn 1.000000 0.000000 -0.000000
vn 0.000000 -1.000000 -0.000000
vn 0.000000 -1.000000 -0.000000
vn 0.000000 -1.000000 -0.000000
vn 0.000000 -1.000000 -0.000000
vn -0.000001 0.000000 1.000000
vn -0.000001 0.000000 1.000000
vn -0.000001 0.000000 1.000000
vn -0.000001 0.000000 1.000000
vn -0.000001 0.000000 1.000000
vn -0.000001 0.000000 1.000000
vn -0.000001 0.000000 1.000000
vn -0.000001 0.000000 1.000000
vn -0.000001 0.000000 1.000000
vn -0.000001 0.000000 1.000000
vn 0.000001 0.368684 -0.929555
vn 0.000001 0.368684 -0.929555
vn 0.000002 1.000000 -0.000000
vn 0.000002 1.000000 -0.000000
vn -0.708791 0.705419 -0.000339
vn -0.709217 0.704991 -0.000339
vn -0.680661 0.732598 -0.000014
vn -0.680661 0.732598 -0.000014
vn -0.700697 0.713459 -0.000013
vn -0.700713 0.713443 -0.000013
vn -0.727932 0.685650 0.000208
vn -0.727931 0.685650 0.000208
vn -1.000000 -0.000001 0.000000
vn -1.000000 -0.000001 0.000000
vn -0.746846 0.664997 -0.000320
vn -0.746846 0.664997 -0.000320
vn 0.000000 -0.000001 -1.000000
vn 0.000000 -0.000001 -1.000000
vn 0.000000 -0.000001 -1.000000
vn 0.000000 -0.000001 -1.000000
vn 0.000000 -0.000001 -1.000000
vn 0.000000 -0.000001 -1.000000
vn 0.000000 -0.000001 -1.000000
vn 0.000000 -0.000001 -1.000000
s 1
g pCube1
usemtl blinn2SG
f 19/21/1 20/22/2 4/23/3 3/24/4
s off
f 5/25/5 6/26/6 8/27/7 7/28/8
f 7/1/9 8/2/10 2/3/11 1/4/12
f 6/41/13 4/42/14 20/43/15 12/44/16 18/45/17 10/46/18 16/47/19 14/48/20 2/49/21 8/50/22
s 2
f 5/5/23 3/6/24 4/7/25 6/8/26
s 1
f 15/29/27 16/30/28 10/31/29 9/32/30
f 17/33/31 18/34/32 12/35/33 11/36/34
f 1/37/35 2/38/36 14/39/37 13/40/38
f 13/9/38 14/10/37 16/11/28 15/12/27
f 9/13/30 10/14/29 18/15/32 17/16/31
f 11/17/34 12/18/33 20/19/2 19/20/1
s 2
f 7/51/39 1/52/40 13/53/41 15/54/42 9/55/43 17/56/44 11/57/45 19/58/46 3/59/24 5/60/23
